# xmcd
#
# Track frame offsets:
#	150
#	1994
#	14384
#	24189
#	40308
#	56632
#	69691
#	82655
#	93011
#	110894
#	124945
#	142544
#	158784
#	170548
#
# Disc length: 2508 seconds
#
# Revision: 1
# Processed by: cddbd v1.5.1PL0 Copyright (c) Steve Scherf et al.
# Submitted via: audiograbber 1.83.01
#
DISCID=a409ca0e
DTITLE=Orion - Heaven And Hell
DYEAR=1987
DGENRE=
TTITLE0=Introduction Of Orion - Jim Ellis
TTITLE1=Honky Tonk Heaven
TTITLE2=Blue Moon Of Kentuckey
TTITLE3=Hell Or High Water
TTITLE4=San Francisco Is A Lonely Town
TTITLE5=Little Sister
TTITLE6=Bring It On Home To Me
TTITLE7=Crazy Little Thing Called Love/Feel Right
TTITLE8=Sunday Fathers
TTITLE9=Texas Tea
TTITLE10=Too Old To Die Young
TTITLE11=Heaven Tonight
TTITLE12=You Can Have Her
TTITLE13=The Impossible Dream
EXTD=A concert in Lexington 15th August 1987
EXTT0=
EXTT1=
EXTT2=
EXTT3=
EXTT4=
EXTT5=
EXTT6=
EXTT7=
EXTT8=
EXTT9=
EXTT10=
EXTT11=
EXTT12=
EXTT13=
PLAYORDER=
